<?xml version="1.0" encoding="us-ascii" standalone="no"?><svg xmlns="http://www.w3.org/2000/svg" xmlns:xlink="http://www.w3.org/1999/xlink" contentStyleType="text/css" height="632.8px" preserveAspectRatio="none" style="width:1152px;height:632px;background:#FFFFFF;" version="1.1" viewBox="0 0 1152 632" width="1152.2px" zoomAndPan="magnify"><defs/><g><!--cluster P Registrar Ministerios--><g id="cluster_P Registrar Ministerios"><path d="M5.95,4.2096 L119.35,4.2096 A2.625,2.625 0 0 1 121.1,5.9596 L126,21.4443 L1145.55,21.4443 A1.75,1.75 0 0 1 1147.3,23.1943 L1147.3,626.1596 A1.75,1.75 0 0 1 1145.55,627.9096 L5.95,627.9096 A1.75,1.75 0 0 1 4.2,626.1596 L4.2,5.9596 A1.75,1.75 0 0 1 5.95,4.2096 " fill="#FFF2CC" style="stroke:#000000;stroke-width:1.0499999999999998;"/><line style="stroke:#000000;stroke-width:1.0499999999999998;" x1="4.2" x2="126" y1="21.4443" y2="21.4443"/><text fill="#000000" font-family="sans-serif" font-size="9.8" font-weight="bold" lengthAdjust="spacing" textLength="112.7" x="7" y="16.1848">P Registrar Ministerios</text></g><!--class fministerio--><g id="elem_fministerio"><rect codeLine="2" fill="#F1F1F1" height="98.7738" id="fministerio" rx="1.75" ry="1.75" style="stroke:#181818;stroke-width:0.3499999999999999;" width="201.6" x="626.5" y="30.1096"/><ellipse cx="700.175" cy="41.3096" fill="#ADD1B2" rx="7.7" ry="7.7" style="stroke:#181818;stroke-width:0.6999999999999998;"/><path d="M702.1109,38.4221 Q702.2203,38.2689 702.3516,38.1924 Q702.4828,38.1158 702.6359,38.1158 Q702.8984,38.1158 703.0625,38.3018 Q703.2266,38.4768 703.2266,38.9033 L703.2266,39.9205 Q703.2266,40.3471 703.0625,40.533 Q702.8984,40.7189 702.6359,40.7189 Q702.3953,40.7189 702.2531,40.5768 Q702.1109,40.4455 702.0344,40.0846 Q702.0016,39.833 701.8703,39.7018 Q701.6406,39.4393 701.2141,39.2861 Q700.7875,39.133 700.35,39.133 Q699.8141,39.133 699.3656,39.3627 Q698.9281,39.5924 698.5781,40.1174 Q698.2391,40.6424 698.2391,41.3643 L698.2391,42.1299 Q698.2391,42.9939 698.8625,43.5736 Q699.4859,44.1424 700.6016,44.1424 Q701.2578,44.1424 701.7172,43.9674 Q701.9906,43.858 702.2859,43.5518 Q702.4719,43.3658 702.5703,43.3111 Q702.6797,43.2564 702.8219,43.2564 Q703.0516,43.2564 703.2266,43.4424 Q703.4125,43.6174 703.4125,43.858 Q703.4125,44.0986 703.1719,44.383 Q702.8219,44.7877 702.2641,45.0174 Q701.5094,45.3346 700.6016,45.3346 Q699.5406,45.3346 698.6984,44.8971 Q698.0094,44.5471 697.5281,43.8033 Q697.0469,43.0486 697.0469,42.1518 L697.0469,41.3424 Q697.0469,40.4127 697.4734,39.6143 Q697.9109,38.8049 698.6766,38.3783 Q699.4422,37.9408 700.3062,37.9408 Q700.8203,37.9408 701.2687,38.0611 Q701.7281,38.1705 702.1109,38.4221 Z " fill="#000000"/><text fill="#000000" font-family="sans-serif" font-size="9.8" lengthAdjust="spacing" textLength="48.3" x="714.525" y="45.3674">FMinisterio</text><line style="stroke:#181818;stroke-width:0.3499999999999999;" x1="627.2" x2="827.4" y1="52.5096" y2="52.5096"/><rect fill="none" height="4.2" style="stroke:#C82930;stroke-width:0.6999999999999998;" width="4.2" x="632.1" y="60.777"/><text fill="#000000" font-family="sans-serif" font-size="9.8" lengthAdjust="spacing" textLength="183.4" x="640.5" y="65.8848">MinisteriosController ministeriosController</text><text fill="#000000" font-family="sans-serif" font-size="9.8" lengthAdjust="spacing" textLength="2.8" x="640.5" y="78.9195">&#160;</text><rect fill="none" height="4.2" style="stroke:#C82930;stroke-width:0.6999999999999998;" width="4.2" x="632.1" y="86.8465"/><text fill="#000000" font-family="sans-serif" font-size="9.8" lengthAdjust="spacing" textLength="143.5" x="640.5" y="91.9543">DefaultTableModel modeloTabla</text><line style="stroke:#181818;stroke-width:0.6999999999999998;" x1="627.2" x2="827.4" y1="97.2139" y2="97.2139"/><rect fill="#F24D5C" height="4.2" style="stroke:#C82930;stroke-width:0.6999999999999998;" width="4.2" x="632.1" y="105.4812"/><text fill="#000000" font-family="sans-serif" font-size="9.8" lengthAdjust="spacing" textLength="74.2" x="640.5" y="110.5891">actualizarTabla()</text><rect fill="#F24D5C" height="4.2" style="stroke:#C82930;stroke-width:0.6999999999999998;" width="4.2" x="632.1" y="118.516"/><text fill="#000000" font-family="sans-serif" font-size="9.8" lengthAdjust="spacing" textLength="179.2" x="640.5" y="123.6238">limpiarTabla(DefaultTableModel modelo)</text></g><!--class ctrministerio--><g id="elem_ctrministerio"><rect codeLine="10" fill="#F1F1F1" height="124.8434" id="ctrministerio" rx="1.75" ry="1.75" style="stroke:#181818;stroke-width:0.3499999999999999;" width="224.7" x="614.95" y="171.5096"/><ellipse cx="679.175" cy="182.7096" fill="#ADD1B2" rx="7.7" ry="7.7" style="stroke:#181818;stroke-width:0.6999999999999998;"/><path d="M681.1109,179.8221 Q681.2203,179.6689 681.3516,179.5924 Q681.4828,179.5158 681.6359,179.5158 Q681.8984,179.5158 682.0625,179.7018 Q682.2266,179.8768 682.2266,180.3033 L682.2266,181.3205 Q682.2266,181.7471 682.0625,181.933 Q681.8984,182.1189 681.6359,182.1189 Q681.3953,182.1189 681.2531,181.9768 Q681.1109,181.8455 681.0344,181.4846 Q681.0016,181.233 680.8703,181.1018 Q680.6406,180.8393 680.2141,180.6861 Q679.7875,180.533 679.35,180.533 Q678.8141,180.533 678.3656,180.7627 Q677.9281,180.9924 677.5781,181.5174 Q677.2391,182.0424 677.2391,182.7643 L677.2391,183.5299 Q677.2391,184.3939 677.8625,184.9736 Q678.4859,185.5424 679.6016,185.5424 Q680.2578,185.5424 680.7172,185.3674 Q680.9906,185.258 681.2859,184.9518 Q681.4719,184.7658 681.5703,184.7111 Q681.6797,184.6564 681.8219,184.6564 Q682.0516,184.6564 682.2266,184.8424 Q682.4125,185.0174 682.4125,185.258 Q682.4125,185.4986 682.1719,185.783 Q681.8219,186.1877 681.2641,186.4174 Q680.5094,186.7346 679.6016,186.7346 Q678.5406,186.7346 677.6984,186.2971 Q677.0094,185.9471 676.5281,185.2033 Q676.0469,184.4486 676.0469,183.5518 L676.0469,182.7424 Q676.0469,181.8127 676.4734,181.0143 Q676.9109,180.2049 677.6766,179.7783 Q678.4422,179.3408 679.3062,179.3408 Q679.8203,179.3408 680.2687,179.4611 Q680.7281,179.5705 681.1109,179.8221 Z " fill="#000000"/><text fill="#000000" font-family="sans-serif" font-size="9.8" lengthAdjust="spacing" textLength="90.3" x="693.525" y="186.7674">MinisteriosController</text><line style="stroke:#181818;stroke-width:0.3499999999999999;" x1="615.65" x2="838.95" y1="193.9096" y2="193.9096"/><rect fill="none" height="4.2" style="stroke:#C82930;stroke-width:0.6999999999999998;" width="4.2" x="620.55" y="202.177"/><text fill="#000000" font-family="sans-serif" font-size="9.8" lengthAdjust="spacing" textLength="131.6" x="628.95" y="207.2848">Ministerios ministerioPrototipo</text><line style="stroke:#181818;stroke-width:0.6999999999999998;" x1="615.65" x2="838.95" y1="212.5443" y2="212.5443"/><ellipse cx="622.65" cy="222.9117" fill="#84BE84" rx="2.1" ry="2.1" style="stroke:#038048;stroke-width:0.6999999999999998;"/><text fill="#000000" font-family="sans-serif" font-size="9.8" lengthAdjust="spacing" textLength="97.3" x="628.95" y="225.9195">MinisteriosController()</text><ellipse cx="622.65" cy="235.9465" fill="#84BE84" rx="2.1" ry="2.1" style="stroke:#038048;stroke-width:0.6999999999999998;"/><text fill="#000000" font-family="sans-serif" font-size="9.8" lengthAdjust="spacing" textLength="83.3" x="628.95" y="238.9543">clone(): Ministerios</text><ellipse cx="622.65" cy="248.9812" fill="#84BE84" rx="2.1" ry="2.1" style="stroke:#038048;stroke-width:0.6999999999999998;"/><text fill="#000000" font-family="sans-serif" font-size="9.8" lengthAdjust="spacing" textLength="95.9" x="628.95" y="251.9891">crearMinisterio(): void</text><ellipse cx="622.65" cy="262.016" fill="#84BE84" rx="2.1" ry="2.1" style="stroke:#038048;stroke-width:0.6999999999999998;"/><text fill="#000000" font-family="sans-serif" font-size="9.8" lengthAdjust="spacing" textLength="130.2" x="628.95" y="265.0238">clonaryCrearMinisterio(): void</text><ellipse cx="622.65" cy="275.0508" fill="#84BE84" rx="2.1" ry="2.1" style="stroke:#038048;stroke-width:0.6999999999999998;"/><text fill="#000000" font-family="sans-serif" font-size="9.8" lengthAdjust="spacing" textLength="206.5" x="628.95" y="278.0586">actualizarMinisterio(Ministerios ministerio): void</text><ellipse cx="622.65" cy="288.0855" fill="#84BE84" rx="2.1" ry="2.1" style="stroke:#038048;stroke-width:0.6999999999999998;"/><text fill="#000000" font-family="sans-serif" font-size="9.8" lengthAdjust="spacing" textLength="167.3" x="628.95" y="291.0934">obtenerMinisterios(): List&lt;Ministerios&gt;</text></g><!--class MinisteriosTemplate--><g id="elem_MinisteriosTemplate"><rect codeLine="20" fill="#F1F1F1" height="124.8434" id="MinisteriosTemplate" rx="1.75" ry="1.75" style="stroke:#181818;stroke-width:0.3499999999999999;" width="221.9" x="493.85" y="351.4096"/><ellipse cx="557.375" cy="362.6096" fill="#A9DCDF" rx="7.7" ry="7.7" style="stroke:#181818;stroke-width:0.6999999999999998;"/><path d="M558.9062,363.8455 L556.0078,363.8455 L555.7125,364.5674 L556.0078,364.5674 Q556.4344,364.5674 556.6203,364.7314 Q556.8062,364.8955 556.8062,365.1689 Q556.8062,365.4314 556.6203,365.5955 Q556.4344,365.7596 556.0078,365.7596 L554.4,365.7596 Q553.9734,365.7596 553.7984,365.5955 Q553.6125,365.4314 553.6125,365.158 Q553.6125,364.8955 553.8094,364.7314 Q553.9953,364.5564 554.4328,364.5674 L556.3031,359.908 L555.5266,359.908 Q555.1,359.908 554.9141,359.7439 Q554.7281,359.5799 554.7281,359.3064 Q554.7281,359.0439 554.9141,358.8799 Q555.1,358.7158 555.5266,358.7158 L558.0969,358.7158 L560.4703,364.5674 Q560.8859,364.5674 561.0172,364.6658 Q561.2906,364.8518 561.2906,365.1689 Q561.2906,365.4314 561.1047,365.5955 Q560.9297,365.7596 560.5031,365.7596 L558.8953,365.7596 Q558.4687,365.7596 558.2828,365.5955 Q558.0969,365.4314 558.0969,365.158 Q558.0969,364.8955 558.2828,364.7314 Q558.4687,364.5674 558.8953,364.5674 L559.1906,364.5674 L558.9062,363.8455 Z M558.4031,362.6533 L557.4516,360.2908 L556.4891,362.6533 L558.4031,362.6533 Z " fill="#000000"/><text fill="#000000" font-family="sans-serif" font-size="9.8" font-style="italic" lengthAdjust="spacing" textLength="88.9" x="571.725" y="366.6674">MinisteriosTemplate</text><line style="stroke:#181818;stroke-width:0.3499999999999999;" x1="494.55" x2="715.05" y1="373.8096" y2="373.8096"/><polygon fill="none" points="501.55,380.677,504.35,383.477,501.55,386.277,498.75,383.477" style="stroke:#B38D22;stroke-width:0.6999999999999998;"/><text fill="#000000" font-family="sans-serif" font-size="9.8" lengthAdjust="spacing" textLength="151.2" x="507.85" y="387.1848">ministeriosDAO : "MinisteriosDAO"</text><line style="stroke:#181818;stroke-width:0.6999999999999998;" x1="494.55" x2="715.05" y1="392.4443" y2="392.4443"/><ellipse cx="501.55" cy="402.8117" fill="#84BE84" rx="2.1" ry="2.1" style="stroke:#038048;stroke-width:0.6999999999999998;"/><text fill="#000000" font-family="sans-serif" font-size="9.8" lengthAdjust="spacing" textLength="95.2" x="507.85" y="405.8195">MinisteriosTemplate()</text><ellipse cx="501.55" cy="415.8465" fill="#84BE84" rx="2.1" ry="2.1" style="stroke:#038048;stroke-width:0.6999999999999998;"/><text fill="#000000" font-family="sans-serif" font-size="9.8" lengthAdjust="spacing" textLength="203.7" x="507.85" y="418.8543">procesarMinisterio(Ministerios ministerio): void</text><polygon fill="#FFFF44" points="501.55,425.3812,504.35,428.1812,501.55,430.9812,498.75,428.1812" style="stroke:#B38D22;stroke-width:0.6999999999999998;"/><text fill="#000000" font-family="sans-serif" font-size="9.8" lengthAdjust="spacing" textLength="199.5" x="507.85" y="431.8891">guardarMinisterio(Ministerios ministerio): void</text><polygon fill="#FFFF44" points="501.55,438.416,504.35,441.216,501.55,444.016,498.75,441.216" style="stroke:#B38D22;stroke-width:0.6999999999999998;"/><text fill="#000000" font-family="sans-serif" font-size="9.8" lengthAdjust="spacing" textLength="119.7" x="507.85" y="444.9238">mostrarMensajeExito():void</text><polygon fill="#FFFF44" points="501.55,451.4508,504.35,454.2508,501.55,457.0508,498.75,454.2508" style="stroke:#B38D22;stroke-width:0.6999999999999998;"/><text fill="#000000" font-family="sans-serif" font-size="9.8" lengthAdjust="spacing" textLength="175" x="507.85" y="457.9586">mostrarMensajeError(Exception e): void</text><ellipse cx="501.55" cy="467.9855" fill="#84BE84" rx="2.1" ry="2.1" style="stroke:#038048;stroke-width:0.6999999999999998;"/><text fill="#000000" font-family="sans-serif" font-size="9.8" lengthAdjust="spacing" textLength="164.5" x="507.85" y="470.9934">obtenerMinisterios():List&lt;Ministerios&gt;</text></g><!--class crMinisterio--><g id="elem_crMinisterio"><rect codeLine="31" fill="#F1F1F1" height="59.6695" id="crMinisterio" rx="1.75" ry="1.75" style="stroke:#181818;stroke-width:0.3499999999999999;" width="217.7" x="430.15" y="544.2596"/><ellipse cx="502.425" cy="555.4596" fill="#ADD1B2" rx="7.7" ry="7.7" style="stroke:#181818;stroke-width:0.6999999999999998;"/><path d="M504.3609,552.5721 Q504.4703,552.4189 504.6016,552.3424 Q504.7328,552.2658 504.8859,552.2658 Q505.1484,552.2658 505.3125,552.4518 Q505.4766,552.6268 505.4766,553.0533 L505.4766,554.0705 Q505.4766,554.4971 505.3125,554.683 Q505.1484,554.8689 504.8859,554.8689 Q504.6453,554.8689 504.5031,554.7268 Q504.3609,554.5955 504.2844,554.2346 Q504.2516,553.983 504.1203,553.8518 Q503.8906,553.5893 503.4641,553.4361 Q503.0375,553.283 502.6,553.283 Q502.0641,553.283 501.6156,553.5127 Q501.1781,553.7424 500.8281,554.2674 Q500.4891,554.7924 500.4891,555.5143 L500.4891,556.2799 Q500.4891,557.1439 501.1125,557.7236 Q501.7359,558.2924 502.8516,558.2924 Q503.5078,558.2924 503.9672,558.1174 Q504.2406,558.008 504.5359,557.7018 Q504.7219,557.5158 504.8203,557.4611 Q504.9297,557.4064 505.0719,557.4064 Q505.3016,557.4064 505.4766,557.5924 Q505.6625,557.7674 505.6625,558.008 Q505.6625,558.2486 505.4219,558.533 Q505.0719,558.9377 504.5141,559.1674 Q503.7594,559.4846 502.8516,559.4846 Q501.7906,559.4846 500.9484,559.0471 Q500.2594,558.6971 499.7781,557.9533 Q499.2969,557.1986 499.2969,556.3018 L499.2969,555.4924 Q499.2969,554.5627 499.7234,553.7643 Q500.1609,552.9549 500.9266,552.5283 Q501.6922,552.0908 502.5562,552.0908 Q503.0703,552.0908 503.5187,552.2111 Q503.9781,552.3205 504.3609,552.5721 Z " fill="#000000"/><text fill="#000000" font-family="sans-serif" font-size="9.8" lengthAdjust="spacing" textLength="67.2" x="516.775" y="559.5174">CrearMinisterio</text><line style="stroke:#181818;stroke-width:0.3499999999999999;" x1="430.85" x2="647.15" y1="566.6596" y2="566.6596"/><line style="stroke:#181818;stroke-width:0.6999999999999998;" x1="430.85" x2="647.15" y1="572.2596" y2="572.2596"/><polygon fill="#FFFF44" points="437.85,579.127,440.65,581.927,437.85,584.727,435.05,581.927" style="stroke:#B38D22;stroke-width:0.6999999999999998;"/><text fill="#000000" font-family="sans-serif" font-size="9.8" lengthAdjust="spacing" textLength="199.5" x="444.15" y="585.6348">guardarMinisterio(Ministerios ministerio): void</text><polygon fill="#FFFF44" points="437.85,592.1617,440.65,594.9617,437.85,597.7617,435.05,594.9617" style="stroke:#B38D22;stroke-width:0.6999999999999998;"/><text fill="#000000" font-family="sans-serif" font-size="9.8" lengthAdjust="spacing" textLength="122.5" x="444.15" y="598.6695">mostrarMensajeExito(): void</text></g><!--class actMinisterio--><g id="elem_actMinisterio"><rect codeLine="36" fill="#F1F1F1" height="59.6695" id="actMinisterio" rx="1.75" ry="1.75" style="stroke:#181818;stroke-width:0.3499999999999999;" width="217.7" x="672.35" y="544.2596"/><ellipse cx="735.875" cy="555.4596" fill="#ADD1B2" rx="7.7" ry="7.7" style="stroke:#181818;stroke-width:0.6999999999999998;"/><path d="M737.8109,552.5721 Q737.9203,552.4189 738.0516,552.3424 Q738.1828,552.2658 738.3359,552.2658 Q738.5984,552.2658 738.7625,552.4518 Q738.9266,552.6268 738.9266,553.0533 L738.9266,554.0705 Q738.9266,554.4971 738.7625,554.683 Q738.5984,554.8689 738.3359,554.8689 Q738.0953,554.8689 737.9531,554.7268 Q737.8109,554.5955 737.7344,554.2346 Q737.7016,553.983 737.5703,553.8518 Q737.3406,553.5893 736.9141,553.4361 Q736.4875,553.283 736.05,553.283 Q735.5141,553.283 735.0656,553.5127 Q734.6281,553.7424 734.2781,554.2674 Q733.9391,554.7924 733.9391,555.5143 L733.9391,556.2799 Q733.9391,557.1439 734.5625,557.7236 Q735.1859,558.2924 736.3016,558.2924 Q736.9578,558.2924 737.4172,558.1174 Q737.6906,558.008 737.9859,557.7018 Q738.1719,557.5158 738.2703,557.4611 Q738.3797,557.4064 738.5219,557.4064 Q738.7516,557.4064 738.9266,557.5924 Q739.1125,557.7674 739.1125,558.008 Q739.1125,558.2486 738.8719,558.533 Q738.5219,558.9377 737.9641,559.1674 Q737.2094,559.4846 736.3016,559.4846 Q735.2406,559.4846 734.3984,559.0471 Q733.7094,558.6971 733.2281,557.9533 Q732.7469,557.1986 732.7469,556.3018 L732.7469,555.4924 Q732.7469,554.5627 733.1734,553.7643 Q733.6109,552.9549 734.3766,552.5283 Q735.1422,552.0908 736.0062,552.0908 Q736.5203,552.0908 736.9687,552.2111 Q737.4281,552.3205 737.8109,552.5721 Z " fill="#000000"/><text fill="#000000" font-family="sans-serif" font-size="9.8" lengthAdjust="spacing" textLength="84.7" x="750.225" y="559.5174">ActualizarMinisterio</text><line style="stroke:#181818;stroke-width:0.3499999999999999;" x1="673.05" x2="889.35" y1="566.6596" y2="566.6596"/><line style="stroke:#181818;stroke-width:0.6999999999999998;" x1="673.05" x2="889.35" y1="572.2596" y2="572.2596"/><polygon fill="#FFFF44" points="680.05,579.127,682.85,581.927,680.05,584.727,677.25,581.927" style="stroke:#B38D22;stroke-width:0.6999999999999998;"/><text fill="#000000" font-family="sans-serif" font-size="9.8" lengthAdjust="spacing" textLength="199.5" x="686.35" y="585.6348">guardarMinisterio(Ministerios ministerio): void</text><polygon fill="#FFFF44" points="680.05,592.1617,682.85,594.9617,680.05,597.7617,677.25,594.9617" style="stroke:#B38D22;stroke-width:0.6999999999999998;"/><text fill="#000000" font-family="sans-serif" font-size="9.8" lengthAdjust="spacing" textLength="122.5" x="686.35" y="598.6695">mostrarMensajeExito(): void</text></g><!--class daoministerios--><g id="elem_daoministerios"><rect codeLine="42" fill="#F1F1F1" height="59.6695" id="daoministerios" rx="1.75" ry="1.75" style="stroke:#181818;stroke-width:0.3499999999999999;" width="198.8" x="206.5" y="544.2596"/><ellipse cx="268.975" cy="555.4596" fill="#ADD1B2" rx="7.7" ry="7.7" style="stroke:#181818;stroke-width:0.6999999999999998;"/><path d="M270.9109,552.5721 Q271.0203,552.4189 271.1516,552.3424 Q271.2828,552.2658 271.4359,552.2658 Q271.6984,552.2658 271.8625,552.4518 Q272.0266,552.6268 272.0266,553.0533 L272.0266,554.0705 Q272.0266,554.4971 271.8625,554.683 Q271.6984,554.8689 271.4359,554.8689 Q271.1953,554.8689 271.0531,554.7268 Q270.9109,554.5955 270.8344,554.2346 Q270.8016,553.983 270.6703,553.8518 Q270.4406,553.5893 270.0141,553.4361 Q269.5875,553.283 269.15,553.283 Q268.6141,553.283 268.1656,553.5127 Q267.7281,553.7424 267.3781,554.2674 Q267.0391,554.7924 267.0391,555.5143 L267.0391,556.2799 Q267.0391,557.1439 267.6625,557.7236 Q268.2859,558.2924 269.4016,558.2924 Q270.0578,558.2924 270.5172,558.1174 Q270.7906,558.008 271.0859,557.7018 Q271.2719,557.5158 271.3703,557.4611 Q271.4797,557.4064 271.6219,557.4064 Q271.8516,557.4064 272.0266,557.5924 Q272.2125,557.7674 272.2125,558.008 Q272.2125,558.2486 271.9719,558.533 Q271.6219,558.9377 271.0641,559.1674 Q270.3094,559.4846 269.4016,559.4846 Q268.3406,559.4846 267.4984,559.0471 Q266.8094,558.6971 266.3281,557.9533 Q265.8469,557.1986 265.8469,556.3018 L265.8469,555.4924 Q265.8469,554.5627 266.2734,553.7643 Q266.7109,552.9549 267.4766,552.5283 Q268.2422,552.0908 269.1062,552.0908 Q269.6203,552.0908 270.0687,552.2111 Q270.5281,552.3205 270.9109,552.5721 Z " fill="#000000"/><text fill="#000000" font-family="sans-serif" font-size="9.8" lengthAdjust="spacing" textLength="67.9" x="283.325" y="559.5174">MinisteriosDAO</text><line style="stroke:#181818;stroke-width:0.3499999999999999;" x1="207.2" x2="404.6" y1="566.6596" y2="566.6596"/><line style="stroke:#181818;stroke-width:0.6999999999999998;" x1="207.2" x2="404.6" y1="572.2596" y2="572.2596"/><ellipse cx="214.2" cy="582.627" fill="#84BE84" rx="2.1" ry="2.1" style="stroke:#038048;stroke-width:0.6999999999999998;"/><text fill="#000000" font-family="sans-serif" font-size="9.8" lengthAdjust="spacing" textLength="180.6" x="220.5" y="585.6348">agregarMinisterio(Ministerios ministerios)</text><ellipse cx="214.2" cy="595.6617" fill="#84BE84" rx="2.1" ry="2.1" style="stroke:#038048;stroke-width:0.6999999999999998;"/><text fill="#000000" font-family="sans-serif" font-size="9.8" lengthAdjust="spacing" textLength="167.3" x="220.5" y="598.6695">obtenerMinisterios(): List&lt;Ministerios&gt;</text></g><!--class daobase--><g id="elem_daobase"><rect codeLine="48" fill="#F1F1F1" height="111.8086" id="daobase" rx="1.75" ry="1.75" style="stroke:#181818;stroke-width:0.3499999999999999;" width="368.2" x="91" y="357.7096"/><ellipse cx="250.425" cy="368.9096" fill="#ADD1B2" rx="7.7" ry="7.7" style="stroke:#181818;stroke-width:0.6999999999999998;"/><path d="M252.3609,366.0221 Q252.4703,365.8689 252.6016,365.7924 Q252.7328,365.7158 252.8859,365.7158 Q253.1484,365.7158 253.3125,365.9018 Q253.4766,366.0768 253.4766,366.5033 L253.4766,367.5205 Q253.4766,367.9471 253.3125,368.133 Q253.1484,368.3189 252.8859,368.3189 Q252.6453,368.3189 252.5031,368.1768 Q252.3609,368.0455 252.2844,367.6846 Q252.2516,367.433 252.1203,367.3018 Q251.8906,367.0393 251.4641,366.8861 Q251.0375,366.733 250.6,366.733 Q250.0641,366.733 249.6156,366.9627 Q249.1781,367.1924 248.8281,367.7174 Q248.4891,368.2424 248.4891,368.9643 L248.4891,369.7299 Q248.4891,370.5939 249.1125,371.1736 Q249.7359,371.7424 250.8516,371.7424 Q251.5078,371.7424 251.9672,371.5674 Q252.2406,371.458 252.5359,371.1518 Q252.7219,370.9658 252.8203,370.9111 Q252.9297,370.8564 253.0719,370.8564 Q253.3016,370.8564 253.4766,371.0424 Q253.6625,371.2174 253.6625,371.458 Q253.6625,371.6986 253.4219,371.983 Q253.0719,372.3877 252.5141,372.6174 Q251.7594,372.9346 250.8516,372.9346 Q249.7906,372.9346 248.9484,372.4971 Q248.2594,372.1471 247.7781,371.4033 Q247.2969,370.6486 247.2969,369.7518 L247.2969,368.9424 Q247.2969,368.0127 247.7234,367.2143 Q248.1609,366.4049 248.9266,365.9783 Q249.6922,365.5408 250.5562,365.5408 Q251.0703,365.5408 251.5187,365.6611 Q251.9781,365.7705 252.3609,366.0221 Z " fill="#000000"/><text fill="#000000" font-family="sans-serif" font-size="9.8" lengthAdjust="spacing" textLength="43.4" x="264.775" y="372.9674">BaseDAO</text><line style="stroke:#181818;stroke-width:0.3499999999999999;" x1="91.7" x2="458.5" y1="380.1096" y2="380.1096"/><line style="stroke:#181818;stroke-width:0.6999999999999998;" x1="91.7" x2="458.5" y1="385.7096" y2="385.7096"/><ellipse cx="98.7" cy="396.077" fill="#84BE84" rx="2.1" ry="2.1" style="stroke:#038048;stroke-width:0.6999999999999998;"/><text fill="#000000" font-family="sans-serif" font-size="9.8" lengthAdjust="spacing" textLength="138.6" x="105" y="399.0848">obtenerConexion(): Connection</text><ellipse cx="98.7" cy="409.1117" fill="#84BE84" rx="2.1" ry="2.1" style="stroke:#038048;stroke-width:0.6999999999999998;"/><text fill="#000000" font-family="sans-serif" font-size="9.8" lengthAdjust="spacing" textLength="265.3" x="105" y="412.1195">insertar(String tabla, Map&lt;String, Object&gt; campos): boolean</text><ellipse cx="98.7" cy="422.1465" fill="#84BE84" rx="2.1" ry="2.1" style="stroke:#038048;stroke-width:0.6999999999999998;"/><text fill="#000000" font-family="sans-serif" font-size="9.8" lengthAdjust="spacing" textLength="350" x="105" y="425.1543">actualizar(String tabla, Map&lt;String, Object&gt; campos, String condicion): boolean</text><ellipse cx="98.7" cy="435.1812" fill="#84BE84" rx="2.1" ry="2.1" style="stroke:#038048;stroke-width:0.6999999999999998;"/><text fill="#000000" font-family="sans-serif" font-size="9.8" lengthAdjust="spacing" textLength="307.3" x="105" y="438.1891">obtener(String tabla, String condicion, RowMapper&lt;T&gt; rowMapper): T</text><ellipse cx="98.7" cy="448.216" fill="#84BE84" rx="2.1" ry="2.1" style="stroke:#038048;stroke-width:0.6999999999999998;"/><text fill="#000000" font-family="sans-serif" font-size="9.8" lengthAdjust="spacing" textLength="285.6" x="105" y="451.2238">obtenerTodos(String tabla, RowMapper&lt;T&gt; rowMapper): List&lt;T&gt;</text><ellipse cx="98.7" cy="461.2508" fill="none" rx="2.1" ry="2.1" style="stroke:#038048;stroke-width:0.6999999999999998;"/><text fill="#000000" font-family="sans-serif" font-size="9.8" lengthAdjust="spacing" textLength="70" x="105" y="464.2586">RowMapper&lt;T&gt;</text></g><!--class bdconexion--><g id="elem_bdconexion"><rect codeLine="57" fill="#F1F1F1" height="59.6695" id="bdconexion" rx="1.75" ry="1.75" style="stroke:#181818;stroke-width:0.3499999999999999;" width="165.9" x="15.75" y="544.2596"/><ellipse cx="68.425" cy="555.4596" fill="#ADD1B2" rx="7.7" ry="7.7" style="stroke:#181818;stroke-width:0.6999999999999998;"/><path d="M70.3609,552.5721 Q70.4703,552.4189 70.6016,552.3424 Q70.7328,552.2658 70.8859,552.2658 Q71.1484,552.2658 71.3125,552.4518 Q71.4766,552.6268 71.4766,553.0533 L71.4766,554.0705 Q71.4766,554.4971 71.3125,554.683 Q71.1484,554.8689 70.8859,554.8689 Q70.6453,554.8689 70.5031,554.7268 Q70.3609,554.5955 70.2844,554.2346 Q70.2516,553.983 70.1203,553.8518 Q69.8906,553.5893 69.4641,553.4361 Q69.0375,553.283 68.6,553.283 Q68.0641,553.283 67.6156,553.5127 Q67.1781,553.7424 66.8281,554.2674 Q66.4891,554.7924 66.4891,555.5143 L66.4891,556.2799 Q66.4891,557.1439 67.1125,557.7236 Q67.7359,558.2924 68.8516,558.2924 Q69.5078,558.2924 69.9672,558.1174 Q70.2406,558.008 70.5359,557.7018 Q70.7219,557.5158 70.8203,557.4611 Q70.9297,557.4064 71.0719,557.4064 Q71.3016,557.4064 71.4766,557.5924 Q71.6625,557.7674 71.6625,558.008 Q71.6625,558.2486 71.4219,558.533 Q71.0719,558.9377 70.5141,559.1674 Q69.7594,559.4846 68.8516,559.4846 Q67.7906,559.4846 66.9484,559.0471 Q66.2594,558.6971 65.7781,557.9533 Q65.2969,557.1986 65.2969,556.3018 L65.2969,555.4924 Q65.2969,554.5627 65.7234,553.7643 Q66.1609,552.9549 66.9266,552.5283 Q67.6922,552.0908 68.5562,552.0908 Q69.0703,552.0908 69.5187,552.2111 Q69.9781,552.3205 70.3609,552.5721 Z " fill="#000000"/><text fill="#000000" font-family="sans-serif" font-size="9.8" lengthAdjust="spacing" textLength="54.6" x="82.775" y="559.5174">ConexionBD</text><line style="stroke:#181818;stroke-width:0.3499999999999999;" x1="16.45" x2="180.95" y1="566.6596" y2="566.6596"/><rect fill="none" height="4.2" style="stroke:#C82930;stroke-width:0.6999999999999998;" width="4.2" x="21.35" y="574.927"/><text fill="#000000" font-family="sans-serif" font-size="9.8" lengthAdjust="spacing" textLength="91.7" x="29.75" y="580.0348">String CONFIG_FILE</text><line style="stroke:#181818;stroke-width:0.6999999999999998;" x1="16.45" x2="180.95" y1="585.2943" y2="585.2943"/><ellipse cx="23.45" cy="595.6617" fill="#84BE84" rx="2.1" ry="2.1" style="stroke:#038048;stroke-width:0.6999999999999998;"/><text fill="#000000" font-family="sans-serif" font-size="9.8" lengthAdjust="spacing" textLength="147.7" x="29.75" y="598.6695">Connection establecerConexion()</text></g><!--class ministerios--><g id="elem_ministerios"><rect codeLine="62" fill="#F1F1F1" height="85.7391" id="ministerios" rx="1.75" ry="1.75" style="stroke:#181818;stroke-width:0.3499999999999999;" width="221.2" x="914.9" y="531.3096"/><ellipse cx="999.075" cy="542.5096" fill="#ADD1B2" rx="7.7" ry="7.7" style="stroke:#181818;stroke-width:0.6999999999999998;"/><path d="M998.2766,543.0674 L998.2766,544.8174 L1001.3062,544.8174 L1001.3062,544.1721 Q1001.3062,543.7455 1001.4703,543.5596 Q1001.6453,543.3736 1001.9078,543.3736 Q1002.1703,543.3736 1002.3344,543.5596 Q1002.4984,543.7455 1002.4984,544.1721 L1002.4984,546.0096 L996.8984,546.0096 Q996.4609,546.0096 996.275,545.8455 Q996.1,545.6814 996.1,545.408 Q996.1,545.1455 996.2859,544.9814 Q996.4719,544.8174 996.8984,544.8174 L997.0844,544.8174 L997.0844,540.158 L996.8984,540.158 Q996.4609,540.158 996.275,539.9939 Q996.1,539.8299 996.1,539.5564 Q996.1,539.2939 996.275,539.1299 Q996.4609,538.9658 996.8984,538.9658 L1002.2359,538.9658 L1002.2359,540.7814 Q1002.2359,541.208 1002.0719,541.3939 Q1001.9187,541.5689 1001.6453,541.5689 Q1001.3828,541.5689 1001.2187,541.3939 Q1001.0547,541.208 1001.0547,540.7814 L1001.0547,540.158 L998.2766,540.158 L998.2766,541.8752 L999.3156,541.8752 Q999.3156,541.4158 999.4031,541.2846 Q999.5891,541.0002 999.9172,541.0002 Q1000.1797,541.0002 1000.3437,541.1861 Q1000.5078,541.3611 1000.5078,541.7877 L1000.5078,543.1658 Q1000.5078,543.5486 1000.4203,543.6799 Q1000.2344,543.9533 999.9172,543.9533 Q999.5891,543.9533 999.4031,543.6689 Q999.3156,543.5377 999.3156,543.0674 L998.2766,543.0674 Z " fill="#000000"/><text fill="#000000" font-family="sans-serif" font-size="9.8" lengthAdjust="spacing" textLength="46.9" x="1013.425" y="546.5674">Ministerios</text><line style="stroke:#181818;stroke-width:0.3499999999999999;" x1="915.6" x2="1135.4" y1="553.7096" y2="553.7096"/><rect fill="none" height="4.2" style="stroke:#C82930;stroke-width:0.6999999999999998;" width="4.2" x="920.5" y="561.977"/><text fill="#000000" font-family="sans-serif" font-size="9.8" lengthAdjust="spacing" textLength="62.3" x="928.9" y="567.0848">String nombre</text><rect fill="none" height="4.2" style="stroke:#C82930;stroke-width:0.6999999999999998;" width="4.2" x="920.5" y="575.0117"/><text fill="#000000" font-family="sans-serif" font-size="9.8" lengthAdjust="spacing" textLength="79.1" x="928.9" y="580.1195">String descripcion</text><line style="stroke:#181818;stroke-width:0.6999999999999998;" x1="915.6" x2="1135.4" y1="585.3791" y2="585.3791"/><ellipse cx="922.6" cy="595.7465" fill="#84BE84" rx="2.1" ry="2.1" style="stroke:#038048;stroke-width:0.6999999999999998;"/><text fill="#000000" font-family="sans-serif" font-size="9.8" lengthAdjust="spacing" textLength="203" x="928.9" y="598.7543">Ministerios(String Nombre, String Descripcion)</text><ellipse cx="922.6" cy="608.7812" fill="#84BE84" rx="2.1" ry="2.1" style="stroke:#038048;stroke-width:0.6999999999999998;"/><text fill="#000000" font-family="sans-serif" font-size="9.8" lengthAdjust="spacing" textLength="85.4" x="928.9" y="611.7891">Clone(): Ministerios</text></g><!--class Prototype--><g id="elem_Prototype"><rect codeLine="69" fill="#F1F1F1" height="46.6348" id="Prototype" rx="1.75" ry="1.75" style="stroke:#181818;stroke-width:0.3499999999999999;" width="103.6" x="798.7" y="390.2596"/><ellipse cx="825.58" cy="401.4596" fill="#B4A7E5" rx="7.7" ry="7.7" style="stroke:#181818;stroke-width:0.6999999999999998;"/><path d="M826.2472,399.108 L826.2472,403.7674 L827.4503,403.7674 Q827.8769,403.7674 828.0628,403.9314 Q828.2487,404.0955 828.2487,404.3689 Q828.2487,404.6314 828.0628,404.7955 Q827.8769,404.9596 827.4503,404.9596 L823.8519,404.9596 Q823.4253,404.9596 823.2394,404.7955 Q823.0534,404.6314 823.0534,404.358 Q823.0534,404.0955 823.2394,403.9314 Q823.4253,403.7674 823.8519,403.7674 L825.055,403.7674 L825.055,399.108 L823.8519,399.108 Q823.4253,399.108 823.2394,398.9439 Q823.0534,398.7799 823.0534,398.5064 Q823.0534,398.2439 823.2394,398.0799 Q823.4253,397.9158 823.8519,397.9158 L827.4503,397.9158 Q827.8769,397.9158 828.0628,398.0799 Q828.2487,398.2439 828.2487,398.5064 Q828.2487,398.7799 828.0628,398.9439 Q827.8769,399.108 827.4503,399.108 L826.2472,399.108 Z " fill="#000000"/><text fill="#000000" font-family="sans-serif" font-size="9.8" font-style="italic" lengthAdjust="spacing" textLength="44.8" x="839.02" y="405.5174">Cloneable</text><line style="stroke:#181818;stroke-width:0.3499999999999999;" x1="799.4" x2="901.6" y1="412.6596" y2="412.6596"/><line style="stroke:#181818;stroke-width:0.6999999999999998;" x1="799.4" x2="901.6" y1="418.2596" y2="418.2596"/><ellipse cx="806.4" cy="428.627" fill="#84BE84" rx="2.1" ry="2.1" style="stroke:#038048;stroke-width:0.6999999999999998;"/><text fill="#000000" font-family="sans-serif" font-size="9.8" lengthAdjust="spacing" textLength="85.4" x="812.7" y="431.6348">Clone(): Ministerios</text></g><!--link fministerio to ctrministerio--><g id="link_fministerio_ctrministerio"><path codeLine="74" d="M727.3,128.9776 C727.3,142.4386 727.3,153.0226 727.3,167.1206 " fill="none" id="fministerio-to-ctrministerio" style="stroke:#181818;stroke-width:0.6999999999999998;"/><polygon fill="#181818" points="727.3,171.3206,730.1,165.0206,727.3,167.8206,724.5,165.0206,727.3,171.3206" style="stroke:#181818;stroke-width:0.6999999999999998;"/></g><!--reverse link daobase to daoministerios--><g id="link_daobase_daoministerios"><path codeLine="75" d="M288.227,482.1287 C293.085,507.2097 296.24,523.4556 300.265,544.2456 " fill="none" id="daobase-backto-daoministerios" style="stroke:#181818;stroke-width:0.6999999999999998;"/><polygon fill="none" points="285.831,469.7586,284.1036,482.9273,292.3504,481.33,285.831,469.7586" style="stroke:#181818;stroke-width:0.6999999999999998;"/><text fill="#000000" font-family="sans-serif" font-size="9.1" lengthAdjust="spacing" textLength="32.2" x="293.3" y="507.5294">extends</text></g><!--link ctrministerio to MinisteriosTemplate--><g id="link_ctrministerio_MinisteriosTemplate"><path codeLine="76" d="M684.971,296.1866 C672.728,314.0226 661.7489,330.0269 649.5059,347.8629 " fill="none" id="ctrministerio-to-MinisteriosTemplate" style="stroke:#181818;stroke-width:0.6999999999999998;stroke-dasharray:7.0,7.0;"/><polygon fill="#181818" points="647.129,351.3256,653.0028,347.7161,649.1097,348.44,648.3858,344.5469,647.129,351.3256" style="stroke:#181818;stroke-width:0.6999999999999998;"/></g><!--link daobase to bdconexion--><g id="link_daobase_bdconexion"><path codeLine="77" d="M213.654,469.7586 C185.808,494.8396 157.1621,520.644 134.0901,541.434 " fill="none" id="daobase-to-bdconexion" style="stroke:#181818;stroke-width:0.6999999999999998;"/><polygon fill="#181818" points="130.97,544.2456,137.5246,542.1084,133.5701,541.9026,133.7759,537.9482,130.97,544.2456" style="stroke:#181818;stroke-width:0.6999999999999998;"/></g><!--reverse link Prototype to ministerios--><g id="link_Prototype_ministerios"><path codeLine="78" d="M884.9023,445.6437 C911.8383,470.1017 945.91,501.0416 979.104,531.1836 " fill="none" id="Prototype-backto-ministerios" style="stroke:#181818;stroke-width:0.6999999999999998;stroke-dasharray:7.0,7.0;"/><polygon fill="none" points="875.574,437.1736,882.0789,448.7531,887.7257,442.5343,875.574,437.1736" style="stroke:#181818;stroke-width:0.6999999999999998;"/><text fill="#000000" font-family="sans-serif" font-size="9.1" lengthAdjust="spacing" textLength="46.9" x="954.1" y="507.5294">implements</text></g><!--link ctrministerio to Prototype--><g id="link_ctrministerio_Prototype"><path codeLine="79" d="M769.874,296.1866 C792.267,328.6386 811.2283,356.1027 827.5243,379.7207 " fill="none" id="ctrministerio-to-Prototype" style="stroke:#181818;stroke-width:0.6999999999999998;stroke-dasharray:7.0,7.0;"/><polygon fill="none" points="834.68,390.0916,830.9812,377.3354,824.0673,382.1059,834.68,390.0916" style="stroke:#181818;stroke-width:0.6999999999999998;"/><text fill="#000000" font-family="sans-serif" font-size="9.1" lengthAdjust="spacing" textLength="46.9" x="793.1" y="327.6294">implements</text></g><!--link MinisteriosTemplate to daoministerios--><g id="link_MinisteriosTemplate_daoministerios"><path codeLine="80" d="M493.71,473.4686 C448.294,497.6116 401.5185,522.478 364.3345,542.246 " fill="none" id="MinisteriosTemplate-to-daoministerios" style="stroke:#181818;stroke-width:0.6999999999999998;"/><polygon fill="#181818" points="360.626,544.2176,367.5031,543.7326,363.7164,542.5746,364.8744,538.7879,360.626,544.2176" style="stroke:#181818;stroke-width:0.6999999999999998;"/></g><!--reverse link MinisteriosTemplate to crMinisterio--><g id="link_MinisteriosTemplate_crMinisterio"><path codeLine="81" d="M574.4435,487.714 C564.7275,511.178 558.929,525.1916 551.033,544.2456 " fill="none" id="MinisteriosTemplate-backto-crMinisterio" style="stroke:#181818;stroke-width:0.6999999999999998;"/><polygon fill="none" points="579.264,476.0726,570.563,486.1072,578.324,489.3208,579.264,476.0726" style="stroke:#181818;stroke-width:0.6999999999999998;"/><text fill="#000000" font-family="sans-serif" font-size="9.1" lengthAdjust="spacing" textLength="32.2" x="570.5" y="507.5294">extends</text></g><!--reverse link MinisteriosTemplate to actMinisterio--><g id="link_MinisteriosTemplate_actMinisterio"><path codeLine="82" d="M682.6158,484.5046 C708.6698,507.9686 727.776,525.1916 748.937,544.2456 " fill="none" id="MinisteriosTemplate-backto-actMinisterio" style="stroke:#181818;stroke-width:0.6999999999999998;"/><polygon fill="none" points="673.253,476.0726,679.8051,487.6255,685.4264,481.3837,673.253,476.0726" style="stroke:#181818;stroke-width:0.6999999999999998;"/><text fill="#000000" font-family="sans-serif" font-size="9.1" lengthAdjust="spacing" textLength="32.2" x="709.1" y="507.5294">extends</text></g><!--SRC=[hLN1Rjim3BttAuZqaY1n3ZiMGO0sQOO2JLjqkG-op0RgRCcGr2tTkd-VgDYHPDXOE-nYM1Jv-FX4IZNZtzWUOVG0ZxWNncgcOIka-qCjb1d1-MQp-RHQmQyp05uoOs2q2GuZO0QUgjFQksKHm4f9grLPeeQgptf6_cjyOY-btR6ynAqgi8IAleeCZ1mo-Z1kNrWfVZBjxUC96KjHrQAr3E6Gv-_0lvUUhuHR7LXsIuaAUD3AAYjgrPARzc9wYbDUAedZoKMigxThP3hOoEEx4aKRmlJhQjWZY17jzvEDebHkKM8KOWZprYqMaMtPoCLowWTk6zqYZnrMTSaiaaJdyS6kB-_X8b7OMKPzAhKGHurghJYQ3nLpldzXklXOIALyXszH6lQCrmTXITI1NQsL7byVEDPMA0duDntxPGnjrpdDOyD51XAp4UgVgXkihtM8Hk2oftqy8NVSAIFFv_zf7RZqpYDr2z4ec8gwwiHZolOQz-_WOIOVRVT0vuePZ7ZaRWc1GOFfXXmFhYq8qFrBvDGav22aGMsP7d-nMiWzMBgQPh1bzU9ecS5z_kpyby1PLJkg5v0hLIAJwM2_6s06ZITNiX3SyKWX6yeTl6xC31xL3vUaHhtOBK6t2uUrYr1sgd0ofb23WLxg7GayZNsElTYEHQFarTehdXUyCVXvo9fCg_kxpStdhvkRs-kpqvHCW_A0XiWWZu-cwNcKLjZNfCzygaw7GPHEgYhNs34MQBWMDJyUT3IiwStMYdFdCKv2hqFqf8rQzJyDH5f8jtnYtBtDtekAywoFRyzhZQ4d1s7S9twSisoPFd5kl-tmnLkMTSREtUHuS8TU45WI1_FvikyzYF0eLpXBjt7YlNYRpo5Dunxn4YjtJdsPtfOXjklRmy5dJWiPSFGbnpTmKl1WH795HY5ExZy0]--></g></svg>